<svg xmlns="http://www.w3.org/2000/svg" viewBox="0 0 512 512" width="512" height="512"><path d="M506 222l-87-98.7c-2-2.2-4.7-3.4-7.6-3.4H100.6c-3 0-5.6 1-7.5 3L6 222c-2.7 3-3.4 7-1.8 10.7.7 1.3 1.5 2.5 2.6 3.4v.6L248.5 509c2 2 4.6 3.3 7.5 3.3 3 0 5.6-1 7.5-3.3L505 236h.2c1-1 2-2.2 2.6-3.5 1.6-3.6 1-7.8-1.7-10.7zm-112.3-82l-44.4 71.6L278 140h115.7zM328 218.5H184l72-72.5 72 72.6zM234 140l-71.3 71.6-44.4-71.7H234zm-135 6.8l44.5 71.8h-108L99 146.8zm-63.3 91.8H154l81.5 225.2L35.7 238.6zm241 224.8L334 309c1.8-5-.8-11-6-12.8-5.2-2-11 .7-13 6L256 462l-80.8-223.5h301L277 463.5zm91.8-244.8l44.5-71.8 63.5 71.8h-108zM256 0c-5.5 0-10 4.5-10 10v51.5c0 5.5 4.5 10 10 10s10-4.5 10-10V10c0-5.5-4.5-10-10-10zm91 39.5c-3.8-4-10.2-4-14 0L296.4 76c-4 4-4 10.2 0 14 2 2 4.5 3 7 3 2.6 0 5.2-1 7-3L347 53.7c4-4 4-10.3 0-14.2zM213.6 76L177 39.4c-3.8-4-10-4-14 0s-4 10.3 0 14.2L199.4 90c2 2 4.5 3 7 3s5.2-1 7.2-3c4-3.8 4-10 0-14z"/><circle cx="337.4" cy="268.4" r="10"/></svg>
